<?xml version="1.0" encoding="UTF-8" standalone="no"?>
<!-- Generator: Adobe Illustrator 18.0.0, SVG Export Plug-In . SVG Version: 6.00 Build 0)  -->

<svg
   xmlns:dc="http://purl.org/dc/elements/1.1/"
   xmlns:cc="http://creativecommons.org/ns#"
   xmlns:rdf="http://www.w3.org/1999/02/22-rdf-syntax-ns#"
   xmlns:svg="http://www.w3.org/2000/svg"
   xmlns="http://www.w3.org/2000/svg"
   xmlns:sodipodi="http://sodipodi.sourceforge.net/DTD/sodipodi-0.dtd"
   xmlns:inkscape="http://www.inkscape.org/namespaces/inkscape"
   version="1.1"
   id="Capa_1"
   x="0px"
   y="0px"
   viewBox="0 0 60 60"
   xml:space="preserve"
   inkscape:version="0.91 r13725"
   sodipodi:docname="bom-icon.svg"
   width="60"
   height="60"><metadata
     id="metadata3482"><rdf:RDF><cc:Work
         rdf:about=""><dc:format>image/svg+xml</dc:format><dc:type
           rdf:resource="http://purl.org/dc/dcmitype/StillImage" /><dc:title></dc:title></cc:Work></rdf:RDF></metadata><defs
     id="defs3480"><filter
       style="color-interpolation-filters:sRGB"
       inkscape:label="Drop Shadow"
       id="filter3907"><feFlood
         flood-opacity="0.498039"
         flood-color="rgb(0,0,0)"
         result="flood"
         id="feFlood3909" /><feComposite
         in="flood"
         in2="SourceGraphic"
         operator="in"
         result="composite1"
         id="feComposite3911" /><feGaussianBlur
         in="composite1"
         stdDeviation="1"
         result="blur"
         id="feGaussianBlur3913" /><feOffset
         dx="-1.08247e-15"
         dy="2.77556e-17"
         result="offset"
         id="feOffset3915" /><feComposite
         in="SourceGraphic"
         in2="offset"
         operator="over"
         result="composite2"
         id="feComposite3917" /></filter></defs><sodipodi:namedview
     pagecolor="#ffffff"
     bordercolor="#666666"
     borderopacity="1"
     objecttolerance="10"
     gridtolerance="10"
     guidetolerance="10"
     inkscape:pageopacity="0"
     inkscape:pageshadow="2"
     inkscape:window-width="1616"
     inkscape:window-height="1155"
     id="namedview3478"
     showgrid="false"
     showguides="true"
     inkscape:guide-bbox="true"
     inkscape:zoom="12.437503"
     inkscape:cx="24.935492"
     inkscape:cy="39.394216"
     inkscape:window-x="0"
     inkscape:window-y="0"
     inkscape:window-maximized="0"
     inkscape:current-layer="Capa_1"
     fit-margin-top="0"
     fit-margin-left="0"
     fit-margin-right="0"
     fit-margin-bottom="0" /><g
     id="g3807"
     style="filter:url(#filter3907)"
     transform="translate(1.999999,1.9999976)"><path
       style="fill:#e9e9e0"
       d="M 36.985,0 7.963,0 C 7.155,0 6.5,0.655 6.5,1.926 L 6.5,55 c 0,0.345 0.655,1 1.463,1 l 40.074,0 c 0.808,0 1.463,-0.655 1.463,-1 l 0,-42.022 c 0,-0.696 -0.093,-0.92 -0.257,-1.085 L 37.607,0.257 C 37.442,0.093 37.218,0 36.985,0 Z"
       id="path3432"
       inkscape:connector-curvature="0" /><polygon
       style="fill:#d9d7ca"
       points="37.5,12 49.349,12 37.5,0.151 "
       id="polygon3434" /><path
       style="fill:#f36fa0"
       d="M 48.037,56 7.963,56 C 7.155,56 6.5,55.345 6.5,54.537 L 6.5,39 l 43,0 0,15.537 C 49.5,55.345 48.845,56 48.037,56 Z"
       id="path3436"
       inkscape:connector-curvature="0" /><g
       transform="translate(-1.3307171,-0.54252882)"
       id="g3536"><text
         sodipodi:linespacing="125%"
         id="text3492"
         y="53.067402"
         x="13.207684"
         style="font-style:normal;font-variant:normal;font-weight:normal;font-stretch:normal;font-size:13.75px;line-height:125%;font-family:sans-serif;-inkscape-font-specification:'sans-serif, Normal';text-align:start;letter-spacing:0px;word-spacing:0px;writing-mode:lr-tb;text-anchor:start;fill:#ffffff;fill-opacity:1;stroke:none;stroke-width:1px;stroke-linecap:butt;stroke-linejoin:miter;stroke-opacity:1"
         xml:space="preserve"><tspan
           y="53.067402"
           x="13.207684"
           id="tspan3494"
           sodipodi:role="line">B</tspan></text>
<text
         transform="scale(1.017266,0.98302704)"
         sodipodi:linespacing="125%"
         id="text3496"
         y="53.792267"
         x="22.500271"
         style="font-style:normal;font-variant:normal;font-weight:normal;font-stretch:normal;font-size:13.51662159px;line-height:125%;font-family:sans-serif;-inkscape-font-specification:'sans-serif, Normal';text-align:start;letter-spacing:0px;word-spacing:0px;writing-mode:lr-tb;text-anchor:start;fill:#ffffff;fill-opacity:1;stroke:none;stroke-width:1px;stroke-linecap:butt;stroke-linejoin:miter;stroke-opacity:1"
         xml:space="preserve"><tspan
           y="53.792267"
           x="22.500271"
           id="tspan3498"
           sodipodi:role="line">O</tspan></text>
<text
         sodipodi:linespacing="125%"
         id="text3500"
         y="53.067402"
         x="33.583633"
         style="font-style:normal;font-variant:normal;font-weight:normal;font-stretch:normal;font-size:13.75px;line-height:125%;font-family:sans-serif;-inkscape-font-specification:'sans-serif, Normal';text-align:start;letter-spacing:0px;word-spacing:0px;writing-mode:lr-tb;text-anchor:start;fill:#ffffff;fill-opacity:1;stroke:none;stroke-width:1px;stroke-linecap:butt;stroke-linejoin:miter;stroke-opacity:1"
         xml:space="preserve"><tspan
           y="53.067402"
           x="33.583633"
           id="tspan3502"
           sodipodi:role="line">M</tspan></text>
</g><path
       style="fill:#c8bdb8"
       d="m 23.5,16 0,-4 -12,0 0,4 0,2 0,2 0,2 0,2 0,2 0,2 0,2 0,4 10,0 2,0 21,0 0,-4 0,-2 0,-2 0,-2 0,-2 0,-2 0,-4 -21,0 z m -10,-2 8,0 0,2 -8,0 0,-2 z m 0,4 8,0 0,2 -8,0 0,-2 z m 0,4 8,0 0,2 -8,0 0,-2 z m 0,4 8,0 0,2 -8,0 0,-2 z m 8,6 -8,0 0,-2 8,0 0,2 z m 21,0 -19,0 0,-2 19,0 0,2 z m 0,-4 -19,0 0,-2 19,0 0,2 z m 0,-4 -19,0 0,-2 19,0 0,2 z m -19,-4 0,-2 19,0 0,2 -19,0 z"
       id="path3446"
       inkscape:connector-curvature="0" /><g
       id="g3448" /><g
       id="g3450" /><g
       id="g3452" /><g
       id="g3454" /><g
       id="g3456" /><g
       id="g3458" /><g
       id="g3460" /><g
       id="g3462" /><g
       id="g3464" /><g
       id="g3466" /><g
       id="g3468" /><g
       id="g3470" /><g
       id="g3472" /><g
       id="g3474" /><g
       id="g3476" /></g></svg>